<svg width="24" height="27" viewBox="0 0 24 27" fill="none" xmlns="http://www.w3.org/2000/svg">
<path d="M20 18.9375C21.0833 18.9375 22 19.3333 22.75 20.125C23.5 20.875 23.875 21.7708 23.875 22.8125C23.875 23.8958 23.4792 24.8333 22.6875 25.625C21.9375 26.375 21.0417 26.75 20 26.75C18.9583 26.75 18.0417 26.375 17.25 25.625C16.5 24.8333 16.125 23.8958 16.125 22.8125C16.125 22.3958 16.1458 22.1042 16.1875 21.9375L6.75 16.4375C5.95833 17.1458 5.04167 17.5 4 17.5C2.91667 17.5 1.97917 17.1042 1.1875 16.3125C0.395833 15.5208 0 14.5833 0 13.5C0 12.4167 0.395833 11.4792 1.1875 10.6875C1.97917 9.89583 2.91667 9.5 4 9.5C5.04167 9.5 5.95833 9.85417 6.75 10.5625L16.125 5.125C16.0417 4.70833 16 4.39583 16 4.1875C16 3.10417 16.3958 2.16667 17.1875 1.375C17.9792 0.583333 18.9167 0.1875 20 0.1875C21.0833 0.1875 22.0208 0.583333 22.8125 1.375C23.6042 2.16667 24 3.10417 24 4.1875C24 5.27083 23.6042 6.20833 22.8125 7C22.0208 7.79167 21.0833 8.1875 20 8.1875C19 8.1875 18.0833 7.8125 17.25 7.0625L7.875 12.5625C7.95833 12.9792 8 13.2917 8 13.5C8 13.7083 7.95833 14.0208 7.875 14.4375L17.375 19.9375C18.125 19.2708 19 18.9375 20 18.9375Z" fill="#780BF7"/>
</svg>
