<svg width="28" height="25" viewBox="0 0 28 25" fill="none" xmlns="http://www.w3.org/2000/svg">
<path d="M14.125 21.25C16.125 19.4583 17.6042 18.1042 18.5625 17.1875C19.5208 16.2708 20.5625 15.1875 21.6875 13.9375C22.8125 12.6875 23.5833 11.5833 24 10.625C24.4583 9.66667 24.6875 8.72917 24.6875 7.8125C24.6875 6.47917 24.2292 5.375 23.3125 4.5C22.4375 3.625 21.3333 3.1875 20 3.1875C18.9583 3.1875 17.9792 3.47917 17.0625 4.0625C16.1875 4.64583 15.5833 5.39583 15.25 6.3125H12.75C12.4167 5.39583 11.7917 4.64583 10.875 4.0625C10 3.47917 9.04167 3.1875 8 3.1875C6.66667 3.1875 5.54167 3.625 4.625 4.5C3.75 5.375 3.3125 6.47917 3.3125 7.8125C3.3125 8.72917 3.52083 9.66667 3.9375 10.625C4.39583 11.5833 5.1875 12.6875 6.3125 13.9375C7.4375 15.1875 8.47917 16.2708 9.4375 17.1875C10.3958 18.1042 11.875 19.4583 13.875 21.25L14 21.375L14.125 21.25ZM20 0.5C22.0833 0.5 23.8125 1.20833 25.1875 2.625C26.6042 4.04167 27.3125 5.77083 27.3125 7.8125C27.3125 9.02083 27.0833 10.2083 26.625 11.375C26.1667 12.5 25.3125 13.7708 24.0625 15.1875C22.8542 16.6042 21.75 17.7917 20.75 18.75C19.75 19.7083 18.1458 21.1875 15.9375 23.1875L14 24.9375L12.0625 23.25C9.1875 20.6667 7.10417 18.7292 5.8125 17.4375C4.5625 16.1458 3.39583 14.625 2.3125 12.875C1.22917 11.125 0.6875 9.4375 0.6875 7.8125C0.6875 5.77083 1.375 4.04167 2.75 2.625C4.16667 1.20833 5.91667 0.5 8 0.5C10.4167 0.5 12.4167 1.4375 14 3.3125C15.5833 1.4375 17.5833 0.5 20 0.5Z" fill="#780BF7"/>
</svg>
