<svg width="32" height="32" viewBox="0 0 32 32" fill="none" xmlns="http://www.w3.org/2000/svg">
<path fill-rule="evenodd" clip-rule="evenodd" d="M0 1.06667C0 0.783769 0.112381 0.512458 0.312419 0.312419C0.512458 0.112381 0.783769 0 1.06667 0H4.26667C4.5046 6.57312e-05 4.73568 0.0796815 4.92316 0.226186C5.11064 0.372691 5.24375 0.577672 5.30133 0.808533L6.16533 4.26667H30.9333C31.0911 4.26676 31.2468 4.30185 31.3894 4.36939C31.532 4.43694 31.6578 4.53526 31.7577 4.65728C31.8577 4.7793 31.9294 4.92198 31.9676 5.07503C32.0058 5.22809 32.0096 5.38771 31.9787 5.5424L29.8453 16.2091C29.7987 16.4417 29.6758 16.6521 29.4961 16.807C29.3165 16.9619 29.0903 17.0526 28.8533 17.0645L8.8064 18.0715L9.41867 21.3333H27.7333C28.0162 21.3333 28.2875 21.4457 28.4876 21.6458C28.6876 21.8458 28.8 22.1171 28.8 22.4C28.8 22.6829 28.6876 22.9542 28.4876 23.1542C28.2875 23.3543 28.0162 23.4667 27.7333 23.4667H8.53333C8.28465 23.4664 8.04387 23.3793 7.85261 23.2204C7.66135 23.0615 7.53162 22.8407 7.48587 22.5963L4.288 5.5616L3.43467 2.13333H1.06667C0.783769 2.13333 0.512458 2.02095 0.312419 1.82091C0.112381 1.62088 0 1.34956 0 1.06667ZM6.6176 6.4L8.4096 15.9552L27.9168 14.976L29.632 6.4H6.6176ZM10.6667 23.4667C9.53508 23.4667 8.44983 23.9162 7.64968 24.7163C6.84952 25.5165 6.4 26.6017 6.4 27.7333C6.4 28.8649 6.84952 29.9502 7.64968 30.7503C8.44983 31.5505 9.53508 32 10.6667 32C11.7983 32 12.8835 31.5505 13.6837 30.7503C14.4838 29.9502 14.9333 28.8649 14.9333 27.7333C14.9333 26.6017 14.4838 25.5165 13.6837 24.7163C12.8835 23.9162 11.7983 23.4667 10.6667 23.4667ZM25.6 23.4667C24.4684 23.4667 23.3832 23.9162 22.583 24.7163C21.7829 25.5165 21.3333 26.6017 21.3333 27.7333C21.3333 28.8649 21.7829 29.9502 22.583 30.7503C23.3832 31.5505 24.4684 32 25.6 32C26.7316 32 27.8168 31.5505 28.617 30.7503C29.4171 29.9502 29.8667 28.8649 29.8667 27.7333C29.8667 26.6017 29.4171 25.5165 28.617 24.7163C27.8168 23.9162 26.7316 23.4667 25.6 23.4667ZM10.6667 25.6C10.1009 25.6 9.55825 25.8248 9.15817 26.2248C8.75809 26.6249 8.53333 27.1675 8.53333 27.7333C8.53333 28.2991 8.75809 28.8418 9.15817 29.2418C9.55825 29.6419 10.1009 29.8667 10.6667 29.8667C11.2325 29.8667 11.7751 29.6419 12.1752 29.2418C12.5752 28.8418 12.8 28.2991 12.8 27.7333C12.8 27.1675 12.5752 26.6249 12.1752 26.2248C11.7751 25.8248 11.2325 25.6 10.6667 25.6ZM25.6 25.6C25.0342 25.6 24.4916 25.8248 24.0915 26.2248C23.6914 26.6249 23.4667 27.1675 23.4667 27.7333C23.4667 28.2991 23.6914 28.8418 24.0915 29.2418C24.4916 29.6419 25.0342 29.8667 25.6 29.8667C26.1658 29.8667 26.7084 29.6419 27.1085 29.2418C27.5086 28.8418 27.7333 28.2991 27.7333 27.7333C27.7333 27.1675 27.5086 26.6249 27.1085 26.2248C26.7084 25.8248 26.1658 25.6 25.6 25.6Z" fill="#090129"/>
</svg>
