<svg width="32" height="32" viewBox="0 0 32 32" fill="none" xmlns="http://www.w3.org/2000/svg">
<path fill-rule="evenodd" clip-rule="evenodd" d="M29.3333 32C29.3333 32 32 32 32 29.3333C32 26.6667 29.3333 18.6667 16 18.6667C2.66667 18.6667 0 26.6667 0 29.3333C0 32 2.66667 32 2.66667 32H29.3333ZM2.68 29.4827V29.4773V29.4827ZM2.72533 29.3333H29.2747C29.2872 29.3319 29.2996 29.3301 29.312 29.328L29.3333 29.3227C29.3307 28.6667 28.9227 26.6933 27.1147 24.8853C25.376 23.1467 22.104 21.3333 16 21.3333C9.89333 21.3333 6.624 23.1467 4.88533 24.8853C3.07733 26.6933 2.672 28.6667 2.66667 29.3227C2.68618 29.3264 2.70574 29.33 2.72533 29.3333V29.3333ZM29.3227 29.4827V29.4773V29.4827ZM16 13.3333C17.4145 13.3333 18.771 12.7714 19.7712 11.7712C20.7714 10.771 21.3333 9.41449 21.3333 8C21.3333 6.58551 20.7714 5.22896 19.7712 4.22876C18.771 3.22857 17.4145 2.66667 16 2.66667C14.5855 2.66667 13.229 3.22857 12.2288 4.22876C11.2286 5.22896 10.6667 6.58551 10.6667 8C10.6667 9.41449 11.2286 10.771 12.2288 11.7712C13.229 12.7714 14.5855 13.3333 16 13.3333V13.3333ZM24 8C24 10.1217 23.1571 12.1566 21.6569 13.6569C20.1566 15.1571 18.1217 16 16 16C13.8783 16 11.8434 15.1571 10.3431 13.6569C8.84286 12.1566 8 10.1217 8 8C8 5.87827 8.84286 3.84344 10.3431 2.34315C11.8434 0.842855 13.8783 0 16 0C18.1217 0 20.1566 0.842855 21.6569 2.34315C23.1571 3.84344 24 5.87827 24 8V8Z" fill="#090129"/>
</svg>
