<svg width="18" height="21" viewBox="0 0 18 21" fill="none" xmlns="http://www.w3.org/2000/svg">
<path d="M15 4.5C15.5625 4.5 16.0312 4.70312 16.4062 5.10938C16.8125 5.48438 17.0156 5.95312 17.0156 6.51562V18.5156C17.0156 19.0469 16.8125 19.5156 16.4062 19.9219C16.0312 20.2969 15.5625 20.4844 15 20.4844H3C2.4375 20.4844 1.95312 20.2969 1.54688 19.9219C1.17188 19.5156 0.984375 19.0469 0.984375 18.5156V6.51562C0.984375 5.95312 1.17188 5.48438 1.54688 5.10938C1.95312 4.70312 2.4375 4.5 3 4.5H5.01562C5.01562 3.75 5.1875 3.07813 5.53125 2.48438C5.90625 1.89062 6.39062 1.42187 6.98438 1.07812C7.57812 0.703125 8.25 0.515625 9 0.515625C9.75 0.515625 10.4219 0.703125 11.0156 1.07812C11.6094 1.42187 12.0781 1.89062 12.4219 2.48438C12.7969 3.07813 12.9844 3.75 12.9844 4.5H15ZM6.98438 8.48438V6.51562H5.01562V8.48438C5.01562 8.76562 5.10938 9.01562 5.29688 9.23438C5.48438 9.42188 5.71875 9.51562 6 9.51562C6.28125 9.51562 6.51562 9.42188 6.70312 9.23438C6.89062 9.01562 6.98438 8.76562 6.98438 8.48438ZM9 2.48438C8.4375 2.48438 7.95312 2.6875 7.54688 3.09375C7.17188 3.46875 6.98438 3.9375 6.98438 4.5H11.0156C11.0156 3.9375 10.8125 3.46875 10.4062 3.09375C10.0312 2.6875 9.5625 2.48438 9 2.48438ZM12.9844 8.48438V6.51562H11.0156V8.48438C11.0156 8.76562 11.1094 9.01562 11.2969 9.23438C11.4844 9.42188 11.7188 9.51562 12 9.51562C12.2812 9.51562 12.5156 9.42188 12.7031 9.23438C12.8906 9.01562 12.9844 8.76562 12.9844 8.48438Z" fill="#780BF7"/>
</svg>
