<svg width="48" height="48" viewBox="0 0 48 48" fill="none" xmlns="http://www.w3.org/2000/svg">
<rect width="48" height="48" rx="4" fill="#8FFF24"/>
<path d="M22.3254 24.3025C22.3254 24.6028 22.2717 24.8817 22.1645 25.1391C22.0572 25.3965 21.9071 25.6217 21.714 25.8148C21.5209 25.9972 21.2957 26.1419 21.0383 26.2492C20.7808 26.3565 20.5073 26.4101 20.2177 26.4101H13.5356C12.6453 26.4101 11.7444 26.3136 10.8327 26.1205C9.92099 25.9274 9.03611 25.6325 8.17805 25.2356C7.33071 24.828 6.53164 24.3132 5.78084 23.6911C5.03003 23.069 4.3704 22.3343 3.80193 21.487C3.24419 20.6289 2.80443 19.6528 2.48266 18.5588C2.16089 17.4541 2 16.226 2 14.8745V7H6.18306V14.8745C6.18306 16.0543 6.34394 17.0518 6.66572 17.867C6.99821 18.6822 7.41652 19.3633 7.92063 19.9103C8.42474 20.4573 8.97712 20.8863 9.57777 21.1974C10.1784 21.5084 10.7469 21.739 11.2832 21.8892C11.8302 22.0393 12.3075 22.1359 12.7151 22.1788C13.1334 22.2109 13.4069 22.227 13.5356 22.227H18.1423V7H22.3254V24.3025Z" fill="#090129"/>
<path d="M43.0994 21.0001C43.3997 21.0001 43.6786 21.0537 43.936 21.1609C44.1934 21.2682 44.4187 21.4184 44.6117 21.6114C44.7941 21.8045 44.9389 22.0297 45.0461 22.2872C45.1534 22.5446 45.207 22.8181 45.207 23.1077L45.207 28.8746C45.207 29.7648 45.1105 30.6658 44.9174 31.5775C44.7244 32.4892 44.4294 33.374 44.0325 34.2321C43.625 35.0794 43.1101 35.8785 42.488 36.6293C41.8659 37.3801 41.1312 38.0398 40.2839 38.6082C39.4258 39.166 38.4498 39.6057 37.3557 39.9275C36.251 40.2493 35.0229 40.4102 33.6714 40.4102L24.8817 40.4102L24.8817 36.2271L33.6714 36.2271C34.8513 36.2271 35.8488 36.0662 36.6639 35.7444C37.4791 35.4119 38.1602 34.9936 38.7072 34.4895C39.2542 33.9854 39.6832 33.433 39.9943 32.8324C40.3053 32.2317 40.5359 31.6633 40.6861 31.127C40.8363 30.58 40.9328 30.1027 40.9757 29.6951C41.0079 29.2768 41.024 29.0033 41.024 28.8746L41.024 25.1831L24.8817 25.1831L24.8817 21.0001L43.0994 21.0001Z" fill="#090129"/>
<rect x="24.8817" y="24.6609" width="4.57633" height="7.32213" fill="#090129"/>
</svg>
