<svg width="48" height="48" viewBox="0 0 48 48" fill="none" xmlns="http://www.w3.org/2000/svg">
<rect width="48" height="48" rx="4" fill="#780BF7"/>
<path d="M22.3254 31.3025C22.3254 31.6028 22.2717 31.8817 22.1645 32.1391C22.0572 32.3965 21.9071 32.6217 21.714 32.8148C21.5209 32.9972 21.2957 33.1419 21.0383 33.2492C20.7808 33.3565 20.5073 33.4101 20.2177 33.4101H13.5356C12.6453 33.4101 11.7444 33.3136 10.8327 33.1205C9.92099 32.9274 9.03611 32.6325 8.17805 32.2356C7.33071 31.828 6.53164 31.3132 5.78084 30.6911C5.03003 30.069 4.3704 29.3343 3.80193 28.487C3.24419 27.6289 2.80443 26.6528 2.48266 25.5588C2.16089 24.4541 2 23.226 2 21.8745V14H6.18306V21.8745C6.18306 23.0543 6.34394 24.0518 6.66572 24.867C6.99821 25.6822 7.41652 26.3633 7.92063 26.9103C8.42474 27.4573 8.97712 27.8863 9.57777 28.1974C10.1784 28.5084 10.7469 28.739 11.2832 28.8892C11.8302 29.0393 12.3075 29.1359 12.7151 29.1788C13.1334 29.2109 13.4069 29.227 13.5356 29.227H18.1423V14H22.3254V31.3025Z" fill="white"/>
<path d="M43.0993 14.0001C43.3997 14.0001 43.6785 14.0537 43.9359 14.1609C44.1934 14.2682 44.4186 14.4184 44.6117 14.6114C44.794 14.8045 44.9388 15.0297 45.0461 15.2872C45.1533 15.5446 45.2069 15.8181 45.2069 16.1077L45.2069 21.8746C45.207 22.7648 45.1104 23.6658 44.9174 24.5775C44.7243 25.4892 44.4293 26.374 44.0325 27.2321C43.6249 28.0794 43.1101 28.8785 42.488 29.6293C41.8659 30.3801 41.1312 31.0398 40.2838 31.6082C39.4258 32.166 38.4497 32.6057 37.3557 32.9275C36.2509 33.2493 35.0228 33.4102 33.6714 33.4102L24.8816 33.4102L24.8816 29.2271L33.6714 29.2271C34.8512 29.2271 35.8487 29.0662 36.6639 28.7444C37.479 28.4119 38.1601 27.9936 38.7071 27.4895C39.2541 26.9854 39.6832 26.433 39.9942 25.8324C40.3053 25.2317 40.5359 24.6633 40.686 24.127C40.8362 23.58 40.9327 23.1027 40.9756 22.6951C41.0078 22.2768 41.0239 22.0033 41.0239 21.8746L41.0239 18.1831L24.8816 18.1831L24.8816 14.0001L43.0993 14.0001Z" fill="white"/>
<rect x="24.8816" y="17.6609" width="4.57633" height="7.32213" fill="white"/>
<path d="M43.0993 14.0001C43.3997 14.0001 43.6785 14.0537 43.9359 14.1609C44.1934 14.2682 44.4186 14.4184 44.6117 14.6114C44.794 14.8045 44.9388 15.0297 45.0461 15.2872C45.1533 15.5446 45.2069 15.8181 45.2069 16.1077L45.2069 21.8746C45.207 22.7648 45.1104 23.6658 44.9174 24.5775C44.7243 25.4892 44.4293 26.374 44.0325 27.2321C43.6249 28.0794 43.1101 28.8785 42.488 29.6293C41.8659 30.3801 41.1312 31.0398 40.2838 31.6082C39.4258 32.166 38.4497 32.6057 37.3557 32.9275C36.2509 33.2493 35.0228 33.4102 33.6714 33.4102L24.8816 33.4102L24.8816 29.2271L33.6714 29.2271C34.8512 29.2271 35.8487 29.0662 36.6639 28.7444C37.479 28.4119 38.1601 27.9936 38.7071 27.4895C39.2541 26.9854 39.6832 26.433 39.9942 25.8324C40.3053 25.2317 40.5359 24.6633 40.686 24.127C40.8362 23.58 40.9327 23.1027 40.9756 22.6951C41.0078 22.2768 41.0239 22.0033 41.0239 21.8746L41.0239 18.1831L24.8816 18.1831L24.8816 14.0001L43.0993 14.0001Z" fill="white"/>
<rect x="24.8816" y="17.6609" width="4.57633" height="7.32213" fill="white"/>
</svg>
