<svg width="151" height="25" viewBox="0 0 151 25" fill="none" xmlns="http://www.w3.org/2000/svg">
<path d="M150.855 5.20508C150.34 6.81055 149.736 8.39258 149.045 9.95117C148.354 11.5098 147.557 12.998 146.654 14.416C145.764 15.8223 144.762 17.1289 143.648 18.3359C142.547 19.5312 141.322 20.5684 139.975 21.4473C138.639 22.3145 137.18 23 135.598 23.5039C134.027 23.9961 132.322 24.2422 130.482 24.2422C130.166 24.2422 129.867 24.1836 129.586 24.0664C129.305 23.9492 129.059 23.791 128.848 23.5918C128.637 23.3809 128.473 23.1406 128.355 22.8711C128.238 22.5898 128.18 22.291 128.18 21.9746V5.20508H132.75V19.4961C133.863 19.4961 134.93 19.2559 135.949 18.7754C136.98 18.2949 137.953 17.6621 138.867 16.877C139.781 16.0801 140.625 15.1777 141.398 14.1699C142.184 13.1621 142.881 12.1309 143.49 11.0762C144.1 10.0098 144.615 8.9668 145.037 7.94727C145.471 6.92773 145.793 6.01367 146.004 5.20508H150.855Z" fill="#090129"/>
<path d="M125.104 11.498C125.104 12.1309 124.992 12.8164 124.77 13.5547C124.547 14.2812 124.184 14.9609 123.68 15.5938C123.188 16.2148 122.537 16.7363 121.729 17.1582C120.932 17.5801 119.959 17.791 118.811 17.791H110.566V13.4492H118.811C119.432 13.4492 119.912 13.2617 120.252 12.8867C120.592 12.5 120.762 12.0254 120.762 11.4629C120.762 10.8652 120.568 10.3965 120.182 10.0566C119.807 9.7168 119.35 9.54688 118.811 9.54688H110.566C109.945 9.54688 109.465 9.74023 109.125 10.127C108.785 10.502 108.615 10.9707 108.615 11.5332V17.9141C108.615 18.5234 108.803 18.998 109.178 19.3379C109.564 19.6777 110.039 19.8477 110.602 19.8477H118.811V24.207H110.566C109.934 24.207 109.248 24.0957 108.51 23.873C107.783 23.6504 107.104 23.293 106.471 22.8008C105.85 22.2969 105.328 21.6465 104.906 20.8496C104.484 20.041 104.273 19.0625 104.273 17.9141V11.498C104.273 10.8652 104.385 10.1855 104.607 9.45898C104.83 8.7207 105.188 8.04102 105.68 7.41992C106.184 6.78711 106.834 6.25977 107.631 5.83789C108.439 5.41602 109.418 5.20508 110.566 5.20508H118.811C119.443 5.20508 120.123 5.31641 120.85 5.53906C121.588 5.76172 122.268 6.125 122.889 6.62891C123.521 7.12109 124.049 7.77148 124.471 8.58008C124.893 9.37695 125.104 10.3496 125.104 11.498Z" fill="#090129"/>
<path d="M98.72 -2.90047e-06C99.0946 -2.91684e-06 99.4423 0.0668802 99.7634 0.200646C100.084 0.334411 100.365 0.521682 100.606 0.76246C100.833 1.00324 101.014 1.28414 101.148 1.60518C101.282 1.92622 101.348 2.26732 101.348 2.62848L101.348 9.82059C101.348 10.9308 101.228 12.0545 100.987 13.1915C100.747 14.3285 100.379 15.432 99.8838 16.5022C99.3755 17.5589 98.7334 18.5555 97.9575 19.4918C97.1817 20.4282 96.2654 21.2508 95.2087 21.9598C94.1386 22.6554 92.9213 23.2038 91.5569 23.6051C90.1791 24.0064 88.6475 24.207 86.9621 24.207L76 24.207L76 18.9902L86.9621 18.9902C88.4335 18.9902 89.6775 18.7895 90.6941 18.3882C91.7107 17.9736 92.5601 17.4519 93.2423 16.8232C93.9245 16.1945 94.4596 15.5056 94.8475 14.7565C95.2354 14.0074 95.523 13.2985 95.7103 12.6297C95.8976 11.9475 96.018 11.3522 96.0715 10.8439C96.1116 10.3222 96.1317 9.98111 96.1317 9.82059L96.1317 5.21684L76 5.21684L76 -1.90735e-06L98.72 -2.90047e-06Z" fill="#090129"/>
<rect x="76" y="4.56592" width="5.70731" height="9.1317" fill="#090129"/>
<path d="M71.9473 11.498C71.9473 12.1309 71.8359 12.8164 71.6133 13.5547C71.3906 14.2812 71.0273 14.9609 70.5234 15.5938C70.0312 16.2148 69.3809 16.7363 68.5723 17.1582C67.7754 17.5801 66.8027 17.791 65.6543 17.791H57.4102V13.4492H65.6543C66.2754 13.4492 66.7559 13.2617 67.0957 12.8867C67.4355 12.5 67.6055 12.0254 67.6055 11.4629C67.6055 10.8652 67.4121 10.3965 67.0254 10.0566C66.6504 9.7168 66.1934 9.54688 65.6543 9.54688H57.4102C56.7891 9.54688 56.3086 9.74023 55.9688 10.127C55.6289 10.502 55.459 10.9707 55.459 11.5332V17.9141C55.459 18.5234 55.6465 18.998 56.0215 19.3379C56.4082 19.6777 56.8828 19.8477 57.4453 19.8477H68.6543V24.207H57.4102C56.7773 24.207 56.0918 24.0957 55.3535 23.873C54.627 23.6504 53.9473 23.293 53.3145 22.8008C52.6934 22.2969 52.1719 21.6465 51.75 20.8496C51.3281 20.041 51.1172 19.0625 51.1172 17.9141V11.498C51.1172 10.8652 51.2285 10.1855 51.4512 9.45898C51.6738 8.7207 52.0312 8.04102 52.5234 7.41992C53.0273 6.78711 53.6777 6.25977 54.4746 5.83789C55.2832 5.41602 56.2617 5.20508 57.4102 5.20508H65.6543C66.2871 5.20508 66.9668 5.31641 67.6934 5.53906C68.4316 5.76172 69.1113 6.125 69.7324 6.62891C70.3652 7.12109 70.8926 7.77148 71.3145 8.58008C71.7363 9.37695 71.9473 10.3496 71.9473 11.498Z" fill="#090129"/>
<path d="M48.2871 17.791C48.2871 18.5762 48.1875 19.2852 47.9883 19.918C47.7891 20.5391 47.5254 21.0898 47.1973 21.5703C46.8691 22.0391 46.4883 22.4434 46.0547 22.7832C45.6211 23.1113 45.1641 23.3809 44.6836 23.5918C44.2148 23.8027 43.7344 23.9609 43.2422 24.0664C42.7617 24.1602 42.3047 24.207 41.8711 24.207H29.4961V19.6367H41.8359C42.457 19.6367 42.9258 19.4785 43.2422 19.1621C43.5586 18.8457 43.7168 18.3887 43.7168 17.791C43.6582 16.5723 43.043 15.9629 41.8711 15.9629H34.7871C33.7793 15.9629 32.9238 15.7871 32.2207 15.4355C31.5176 15.084 30.9434 14.6445 30.498 14.1172C30.0645 13.5898 29.748 13.0215 29.5488 12.4121C29.3613 11.8027 29.2676 11.2344 29.2676 10.707C29.2676 9.6875 29.4492 8.83203 29.8125 8.14062C30.1758 7.4375 30.6328 6.86914 31.1836 6.43555C31.7344 6.00195 32.332 5.69141 32.9766 5.50391C33.6211 5.30469 34.2246 5.20508 34.7871 5.20508H46.0195V9.77539H34.8223C34.5879 9.77539 34.4004 9.80469 34.2598 9.86328C34.1309 9.91016 34.0312 9.98047 33.9609 10.0742C33.9023 10.1562 33.8672 10.25 33.8555 10.3555C33.8438 10.4492 33.8379 10.543 33.8379 10.6367C33.8496 10.8242 33.8848 10.9707 33.9434 11.0762C34.002 11.1816 34.0723 11.2578 34.1543 11.3047C34.248 11.3516 34.3477 11.3809 34.4531 11.3926C34.5703 11.3926 34.6816 11.3926 34.7871 11.3926H41.8711C43.043 11.3926 44.0391 11.6035 44.8594 12.0254C45.6797 12.4473 46.3418 12.9805 46.8457 13.625C47.3496 14.2578 47.7129 14.9492 47.9355 15.6992C48.1699 16.4492 48.2871 17.1465 48.2871 17.791Z" fill="#090129"/>
<path d="M25.207 21.9043C25.207 22.2324 25.1484 22.5371 25.0312 22.8184C24.9141 23.0996 24.75 23.3457 24.5391 23.5566C24.3281 23.7559 24.082 23.9141 23.8008 24.0312C23.5195 24.1484 23.2207 24.207 22.9043 24.207H12.6035C11.6309 24.207 10.6465 24.1016 9.65039 23.8906C8.6543 23.6797 7.6875 23.3574 6.75 22.9238C5.82422 22.4785 4.95117 21.916 4.13086 21.2363C3.31055 20.5566 2.58984 19.7539 1.96875 18.8281C1.35938 17.8906 0.878906 16.8242 0.527344 15.6289C0.175781 14.4219 0 13.0801 0 11.6035V6H4.57031V11.6035C4.57031 12.8926 4.74609 13.9824 5.09766 14.873C5.46094 15.7637 5.91797 16.5078 6.46875 17.1055C7.01953 17.7031 7.62305 18.1719 8.2793 18.5117C8.93555 18.8516 9.55664 19.1035 10.1426 19.2676C10.7402 19.4316 11.2617 19.5371 11.707 19.584C12.1641 19.6191 12.4629 19.6367 12.6035 19.6367H20.6367V6H25.207V21.9043Z" fill="#090129"/>
</svg>
